<svg version="1.1" id="Layer_1" xmlns="http://www.w3.org/2000/svg" xmlns:xlink="http://www.w3.org/1999/xlink" x="0px" y="0px"
	 width="100%" viewBox="0 0 1920 1920" enable-background="new 0 0 1920 1920" xml:space="preserve">
<path fill="#000000" opacity="1.000000" stroke="none" 
	d="
M1286.000000,1921.000000 
	C857.333313,1921.000000 429.166656,1921.000000 1.000000,1921.000000 
	C1.000000,1281.000000 1.000000,641.000000 1.000000,1.000000 
	C641.000000,1.000000 1281.000000,1.000000 1921.000000,1.000000 
	C1921.000000,641.000000 1921.000000,1281.000000 1921.000000,1921.000000 
	C1709.500000,1921.000000 1498.000000,1921.000000 1286.000000,1921.000000 
M1540.082642,741.935120 
	C1539.999634,734.531677 1539.916748,727.128174 1539.893433,718.823242 
	C1539.872803,687.991333 1539.852051,657.159363 1540.002808,625.362305 
	C1539.999268,573.538879 1540.093628,521.715088 1539.866943,469.892639 
	C1539.838867,463.475922 1538.521362,456.970276 1537.072998,450.673340 
	C1533.743774,436.198822 1526.432007,423.542847 1517.506104,411.904694 
	C1511.732300,404.376404 1505.362915,397.252106 1498.759888,390.431213 
	C1494.328613,385.853821 1489.509521,381.242279 1484.005981,378.196075 
	C1471.716187,371.393768 1459.945801,363.288422 1445.795410,360.382233 
	C1437.390381,358.655945 1429.090698,355.797119 1420.615967,355.167755 
	C1405.967896,354.079987 1391.221680,354.173340 1376.514282,354.064819 
	C1362.220703,353.959351 1347.924438,354.272766 1333.629150,354.308899 
	C1321.150757,354.340424 1308.672119,354.184052 1296.193726,354.217072 
	C1283.441406,354.250793 1270.689331,354.446808 1257.937012,354.511688 
	C1243.927612,354.582977 1229.918091,354.606537 1215.908569,354.612549 
	C1201.939697,354.618561 1187.970825,354.566528 1174.001953,354.559296 
	C1159.995117,354.552032 1145.988159,354.574371 1131.981323,354.573181 
	C1117.982544,354.571991 1103.983643,354.549957 1089.984863,354.551453 
	C1075.973877,354.552948 1061.962891,354.583221 1047.951904,354.580811 
	C1032.621704,354.578156 1017.291382,354.539978 1001.961121,354.540710 
	C987.953491,354.541351 973.945862,354.589203 959.938232,354.587219 
	C944.608337,354.585052 929.278442,354.549316 913.948547,354.528503 
	C902.303467,354.512695 890.658081,354.445679 879.013367,354.501434 
	C872.197937,354.534088 865.380920,354.948914 858.569153,354.857361 
	C849.610901,354.736938 840.657776,354.078979 831.700989,354.046021 
	C824.646057,354.020081 817.588806,354.840668 810.532715,354.839050 
	C798.696045,354.836334 786.859680,354.333832 775.022766,354.316071 
	C765.655823,354.302032 756.287354,354.909149 746.921387,354.861481 
	C735.120850,354.801453 723.323242,354.191254 711.522522,354.114899 
	C693.455505,353.997986 675.386841,354.109558 657.318970,354.169891 
	C637.824341,354.235016 618.329834,354.432495 598.835327,354.424011 
	C580.903381,354.416229 562.967773,353.942444 545.040894,354.188873 
	C533.236694,354.351135 521.290527,354.477264 509.692413,356.366516 
	C498.696442,358.157654 488.010162,361.836273 477.799377,366.851776 
	C464.186188,373.538422 451.635254,381.316071 440.328003,391.686737 
	C427.115387,403.805023 417.749634,418.207703 409.587097,433.839264 
	C400.384430,451.462708 396.147827,470.297241 396.049835,489.879517 
	C395.510803,597.631836 395.292755,705.385803 395.041901,813.139465 
	C395.022247,821.576172 395.835602,830.013733 395.851532,838.451660 
	C395.948059,889.615540 395.935455,940.779602 395.940063,991.943604 
	C395.946655,1064.529419 395.412750,1137.120239 396.099091,1209.699463 
	C396.650421,1268.003174 393.068237,1326.376221 398.301758,1384.595337 
	C399.081970,1393.274292 401.739441,1401.979736 404.794800,1410.202393 
	C407.703461,1418.030396 411.697754,1425.612915 416.248322,1432.633545 
	C422.201019,1441.817261 428.299316,1451.193604 435.896515,1458.959595 
	C448.541138,1471.885010 463.640839,1481.680176 480.296295,1489.116333 
	C493.937714,1495.207153 508.310089,1498.469482 522.902771,1499.729858 
	C538.193726,1501.050415 553.661743,1500.443359 569.052612,1500.463135 
	C627.750854,1500.538452 686.449219,1500.528442 745.147522,1500.546631 
	C776.484863,1500.556396 807.822144,1500.548096 839.159485,1500.568115 
	C863.210205,1500.583496 887.260986,1500.616333 911.311707,1500.666870 
	C948.017273,1500.744141 984.722839,1500.919556 1021.428406,1500.912354 
	C1058.968506,1500.905029 1096.508545,1500.720215 1134.048584,1500.627197 
	C1171.489868,1500.534546 1208.931152,1500.409058 1246.372437,1500.393066 
	C1274.662109,1500.380859 1302.962646,1501.038086 1331.238770,1500.452881 
	C1363.714844,1499.780762 1396.312134,1503.353638 1428.662476,1497.982422 
	C1434.179932,1497.066284 1439.941284,1496.703247 1445.113892,1494.794678 
	C1460.952881,1488.950562 1476.607666,1482.468262 1489.621826,1471.309204 
	C1497.597656,1464.470337 1506.235718,1457.925781 1512.480591,1449.664673 
	C1520.611694,1438.908325 1527.200317,1426.857300 1533.411499,1414.825928 
	C1537.193237,1407.500854 1539.999756,1399.387939 1540.000732,1390.829834 
	C1540.020630,1202.176758 1540.007568,1013.523621 1539.993530,824.870483 
	C1539.993408,823.209290 1539.891846,821.548157 1539.929565,818.968018 
	C1539.930298,793.586365 1539.931030,768.204773 1540.082642,741.935120 
z"/>
<path fill="#E91E63" opacity="1.000000" stroke="none" 
	d="
M1539.837646,819.886963 
	C1539.891846,821.548157 1539.993408,823.209290 1539.993530,824.870483 
	C1540.007568,1013.523621 1540.020630,1202.176758 1540.000732,1390.829834 
	C1539.999756,1399.387939 1537.193237,1407.500854 1533.411499,1414.825928 
	C1527.200317,1426.857300 1520.611694,1438.908325 1512.480591,1449.664673 
	C1506.235718,1457.925781 1497.597656,1464.470337 1489.621826,1471.309204 
	C1476.607666,1482.468262 1460.952881,1488.950562 1445.113892,1494.794678 
	C1439.941284,1496.703247 1434.179932,1497.066284 1428.662476,1497.982422 
	C1396.312134,1503.353638 1363.714844,1499.780762 1331.238770,1500.452881 
	C1302.962646,1501.038086 1274.662109,1500.380859 1246.372437,1500.393066 
	C1208.931152,1500.409058 1171.489868,1500.534546 1134.048584,1500.627197 
	C1096.508545,1500.720215 1058.968506,1500.905029 1021.428406,1500.912354 
	C984.722839,1500.919556 948.017273,1500.744141 911.311707,1500.666870 
	C887.260986,1500.616333 863.210205,1500.583496 839.159485,1500.568115 
	C807.822144,1500.548096 776.484863,1500.556396 745.147522,1500.546631 
	C686.449219,1500.528442 627.750854,1500.538452 569.052612,1500.463135 
	C553.661743,1500.443359 538.193726,1501.050415 522.902771,1499.729858 
	C508.310089,1498.469482 493.937714,1495.207153 480.296295,1489.116333 
	C463.640839,1481.680176 448.541138,1471.885010 435.896515,1458.959595 
	C428.299316,1451.193604 422.201019,1441.817261 416.248322,1432.633545 
	C411.697754,1425.612915 407.703461,1418.030396 404.794800,1410.202393 
	C401.739441,1401.979736 399.081970,1393.274292 398.301758,1384.595337 
	C393.068237,1326.376221 396.650421,1268.003174 396.099091,1209.699463 
	C395.412750,1137.120239 395.946655,1064.529419 395.940063,991.943604 
	C395.935455,940.779602 395.948059,889.615540 395.851532,838.451660 
	C395.835602,830.013733 395.022247,821.576172 395.041901,813.139465 
	C395.292755,705.385803 395.510803,597.631836 396.049835,489.879517 
	C396.147827,470.297241 400.384430,451.462708 409.587097,433.839264 
	C417.749634,418.207703 427.115387,403.805023 440.328003,391.686737 
	C451.635254,381.316071 464.186188,373.538422 477.799377,366.851776 
	C488.010162,361.836273 498.696442,358.157654 509.692413,356.366516 
	C521.290527,354.477264 533.236694,354.351135 545.040894,354.188873 
	C562.967773,353.942444 580.903381,354.416229 598.835327,354.424011 
	C618.329834,354.432495 637.824341,354.235016 657.318970,354.169891 
	C675.386841,354.109558 693.455505,353.997986 711.522522,354.114899 
	C723.323242,354.191254 735.120850,354.801453 746.921387,354.861481 
	C756.287354,354.909149 765.655823,354.302032 775.022766,354.316071 
	C786.859680,354.333832 798.696045,354.836334 810.532715,354.839050 
	C817.588806,354.840668 824.646057,354.020081 831.700989,354.046021 
	C840.657776,354.078979 849.610901,354.736938 858.569153,354.857361 
	C865.380920,354.948914 872.197937,354.534088 879.013367,354.501434 
	C890.658081,354.445679 902.303467,354.512695 913.948547,354.528503 
	C929.278442,354.549316 944.608337,354.585052 959.938232,354.587219 
	C973.945862,354.589203 987.953491,354.541351 1001.961121,354.540710 
	C1017.291382,354.539978 1032.621704,354.578156 1047.951904,354.580811 
	C1061.962891,354.583221 1075.973877,354.552948 1089.984863,354.551453 
	C1103.983643,354.549957 1117.982544,354.571991 1131.981323,354.573181 
	C1145.988159,354.574371 1159.995117,354.552032 1174.001953,354.559296 
	C1187.970825,354.566528 1201.939697,354.618561 1215.908569,354.612549 
	C1229.918091,354.606537 1243.927612,354.582977 1257.937012,354.511688 
	C1270.689331,354.446808 1283.441406,354.250793 1296.193726,354.217072 
	C1308.672119,354.184052 1321.150757,354.340424 1333.629150,354.308899 
	C1347.924438,354.272766 1362.220703,353.959351 1376.514282,354.064819 
	C1391.221680,354.173340 1405.967896,354.079987 1420.615967,355.167755 
	C1429.090698,355.797119 1437.390381,358.655945 1445.795410,360.382233 
	C1459.945801,363.288422 1471.716187,371.393768 1484.005981,378.196075 
	C1489.509521,381.242279 1494.328613,385.853821 1498.759888,390.431213 
	C1505.362915,397.252106 1511.732300,404.376404 1517.506104,411.904694 
	C1526.432007,423.542847 1533.743774,436.198822 1537.072998,450.673340 
	C1538.521362,456.970276 1539.838867,463.475922 1539.866943,469.892639 
	C1540.093628,521.715088 1539.999268,573.538879 1539.649048,625.994202 
	C1537.432617,628.532471 1535.532227,630.403503 1533.713135,632.350647 
	C1501.979736,666.318909 1470.262451,700.302307 1438.529419,734.270813 
	C1356.978516,821.566711 1275.419312,908.854614 1193.867676,996.149780 
	C1113.908325,1081.740723 1033.953857,1167.336548 953.999023,1252.931885 
	C949.009216,1258.273682 949.028442,1258.268311 943.740784,1253.170532 
	C885.922241,1197.427856 828.100403,1141.688721 770.273071,1085.955200 
	C769.107788,1084.832031 767.865234,1083.788818 766.247131,1082.339722 
	C753.827698,1095.131226 741.713806,1107.608154 728.937317,1120.767334 
	C731.465637,1122.973633 733.506104,1124.656616 735.438843,1126.455200 
	C802.154724,1188.544678 868.845276,1250.661377 935.585938,1312.724243 
	C944.475891,1320.991089 953.613342,1328.991821 962.821289,1337.404053 
	C966.390747,1341.166382 969.775024,1344.640381 973.087036,1348.448608 
	C970.772705,1351.242065 968.549500,1353.718994 966.283325,1356.156006 
	C964.096375,1358.507690 962.195190,1358.658447 959.591431,1356.225830 
	C919.783142,1319.033936 879.879150,1281.944458 840.001770,1244.826538 
	C800.855469,1208.389160 761.684509,1171.978271 722.627319,1135.445679 
	C719.519409,1132.538696 717.671692,1132.237061 714.582336,1135.529541 
	C703.068787,1147.799683 691.248596,1159.781982 679.563354,1171.891479 
	C678.559082,1172.932251 677.702026,1174.114990 675.787354,1176.425537 
	C677.569458,1177.594849 679.311218,1178.399780 680.625671,1179.652832 
	C693.528870,1191.954346 706.407043,1204.282593 719.204895,1216.693481 
	C769.065369,1265.046509 818.867798,1313.459229 868.754578,1361.785034 
	C879.882568,1372.564819 891.305298,1383.039673 902.520569,1393.730225 
	C917.957520,1408.444702 933.311584,1423.246338 948.731384,1437.979004 
	C954.837708,1443.812988 956.646484,1443.736938 962.329590,1437.651733 
	C1010.432007,1386.145996 1058.527222,1334.633667 1106.633545,1283.131714 
	C1193.179443,1190.476929 1279.731323,1097.827759 1366.281494,1005.176880 
	C1408.816284,959.643921 1451.331665,914.092651 1493.899658,868.590759 
	C1509.145874,852.293945 1524.521240,836.118042 1539.837646,819.886963 
M956.969238,969.216370 
	C972.145142,968.019226 985.668823,962.998169 997.566711,953.157776 
	C1033.035156,923.822632 1029.379028,866.945251 990.268738,842.688110 
	C956.110229,821.502136 912.572571,832.481262 893.214294,867.632507 
	C880.188965,891.284363 881.122375,915.319824 895.568481,937.829834 
	C909.456848,959.470642 930.317871,969.591309 956.969238,969.216370 
M1217.029785,1389.500244 
	C1216.856812,1381.567749 1217.431274,1373.526123 1216.294800,1365.734131 
	C1215.217407,1358.347534 1211.007568,1351.718506 1202.942627,1350.685303 
	C1194.999268,1349.667725 1186.823608,1350.463257 1178.768555,1350.463257 
	C1178.538574,1351.194214 1178.265137,1351.659058 1178.264038,1352.124268 
	C1178.224243,1369.945435 1178.239380,1387.766846 1178.158936,1405.587769 
	C1178.146851,1408.270264 1179.359375,1409.025635 1181.811279,1408.982910 
	C1187.306152,1408.887085 1192.803833,1408.914795 1198.299927,1408.953613 
	C1203.523071,1408.990601 1207.980469,1406.922607 1210.793701,1402.775879 
	C1213.357178,1398.997070 1214.858154,1394.497559 1217.029785,1389.500244 
M1290.446045,1379.122437 
	C1274.268799,1379.107910 1272.365479,1377.277100 1273.678955,1362.995361 
	C1274.240356,1356.891357 1277.325928,1353.810791 1283.798218,1353.555298 
	C1288.279907,1353.378418 1292.783691,1353.784668 1297.278442,1353.902344 
	C1298.941895,1353.946045 1300.607422,1353.909424 1302.272095,1353.909424 
	C1302.274536,1353.311768 1302.276855,1352.714111 1302.279297,1352.116455 
	C1297.095093,1351.743164 1291.914673,1351.126953 1286.725952,1351.045654 
	C1274.796265,1350.858765 1270.791382,1354.889038 1270.644165,1366.782227 
	C1270.627686,1368.114258 1270.612183,1369.452026 1270.711304,1370.778687 
	C1271.237915,1377.815552 1274.235840,1380.954956 1281.355103,1381.553711 
	C1284.832153,1381.846191 1288.347290,1381.685425 1291.845215,1381.729126 
	C1300.795410,1381.841064 1303.044312,1384.118042 1303.041870,1393.082397 
	C1303.041626,1394.081421 1303.044678,1395.084717 1302.959717,1396.078613 
	C1302.402344,1402.597046 1300.310303,1405.209351 1293.832886,1405.826538 
	C1288.390625,1406.345093 1282.864014,1405.979126 1277.374756,1406.001587 
	C1275.860229,1406.007812 1274.345703,1406.002686 1272.831299,1406.002686 
	C1278.004883,1409.368164 1294.437378,1409.782471 1299.442993,1407.287598 
	C1300.885498,1406.568481 1302.507935,1405.559082 1303.268921,1404.235107 
	C1306.912109,1397.897095 1306.901001,1391.010132 1304.304443,1384.508179 
	C1302.071167,1378.916504 1296.468750,1379.114624 1290.446045,1379.122437 
M1432.285156,1401.905640 
	C1431.413696,1398.106079 1430.542236,1394.306641 1429.599854,1390.197754 
	C1431.466187,1389.970093 1432.430176,1389.758789 1433.395874,1389.750122 
	C1439.060669,1389.699097 1444.732666,1389.861206 1450.389160,1389.631470 
	C1456.715210,1389.374634 1459.019287,1386.755737 1458.957520,1380.515015 
	C1458.864990,1371.155884 1454.941040,1367.231201 1445.491699,1367.095825 
	C1443.327026,1367.064819 1441.149536,1367.014282 1438.997314,1367.197876 
	C1433.273193,1367.686401 1429.363525,1370.182373 1428.857422,1375.758179 
	C1428.114014,1383.945801 1428.259277,1392.302734 1428.989136,1400.501831 
	C1429.422852,1405.372192 1433.393311,1408.572266 1438.390137,1408.690063 
	C1444.003784,1408.822388 1449.644653,1408.074463 1455.259888,1407.558960 
	C1456.098267,1407.481934 1456.861206,1406.582520 1457.658936,1406.063477 
	C1452.012085,1405.684692 1446.696289,1406.553101 1441.457397,1406.218140 
	C1438.477417,1406.027710 1435.623047,1403.870117 1432.285156,1401.905640 
M1324.595093,1403.182617 
	C1323.303589,1400.890625 1321.687500,1398.719604 1320.779175,1396.284668 
	C1317.522827,1387.556641 1314.549438,1378.723389 1311.355347,1369.971436 
	C1310.834351,1368.544067 1309.738159,1367.326660 1308.907837,1366.012207 
	C1307.964355,1367.148560 1307.793335,1367.835205 1307.989624,1368.392212 
	C1311.749878,1379.062988 1315.383301,1389.784424 1319.475220,1400.327637 
	C1320.416748,1402.753540 1323.081055,1404.468994 1324.719849,1406.683594 
	C1325.546387,1407.800537 1326.433228,1409.379761 1326.270020,1410.614868 
	C1325.947998,1413.053589 1324.912109,1415.397705 1324.175293,1417.782227 
	C1323.216919,1420.884155 1322.262329,1423.987061 1321.306152,1427.089600 
	C1322.074219,1427.316162 1322.842285,1427.542725 1323.610352,1427.769409 
	C1330.374023,1407.438477 1337.137817,1387.107544 1343.901489,1366.776611 
	C1343.230225,1366.523560 1342.558960,1366.270508 1341.887695,1366.017456 
	C1341.179810,1367.556396 1340.330200,1369.047241 1339.786987,1370.642212 
	C1336.354370,1380.722290 1333.001465,1390.829346 1329.592163,1400.917480 
	C1328.898682,1402.969360 1328.374756,1405.450684 1324.595093,1403.182617 
M1246.897217,1408.753784 
	C1255.092529,1406.714478 1257.938599,1404.049683 1258.789062,1395.634033 
	C1259.349487,1390.087158 1259.163940,1384.345703 1258.406494,1378.815430 
	C1257.509033,1372.263184 1253.145996,1368.436768 1246.906616,1367.335815 
	C1233.103516,1364.899902 1225.819336,1370.749268 1225.277832,1384.717041 
	C1225.226440,1386.044922 1225.236084,1387.375610 1225.239868,1388.705078 
	C1225.286621,1405.289673 1229.412231,1409.284790 1246.897217,1408.753784 
M1369.595459,1365.238037 
	C1364.843750,1366.561157 1360.092041,1367.884277 1355.177612,1369.252686 
	C1354.791016,1368.641968 1354.135864,1367.607178 1353.166748,1366.076660 
	C1353.166748,1380.664673 1353.166748,1394.568359 1353.166748,1408.471924 
	C1353.628174,1408.491089 1354.089478,1408.510376 1354.550903,1408.529541 
	C1354.667480,1406.974121 1354.877930,1405.419189 1354.884766,1403.863281 
	C1354.919434,1396.034058 1354.900635,1388.204468 1354.900879,1380.375000 
	C1354.901123,1371.773315 1356.082031,1370.331055 1364.600342,1368.528809 
	C1376.201660,1366.074219 1381.371460,1370.220825 1381.411621,1382.049927 
	C1381.437012,1389.546143 1381.380859,1397.042847 1381.451172,1404.538452 
	C1381.464111,1405.922241 1381.907715,1407.301880 1382.152466,1408.683472 
	C1383.515869,1407.781494 1383.859253,1407.036377 1383.861206,1406.290405 
	C1383.885620,1396.795532 1384.088623,1387.293213 1383.777100,1377.807983 
	C1383.525635,1370.147217 1378.628540,1365.817383 1369.595459,1365.238037 
M1394.235107,1392.924561 
	C1394.436279,1388.281860 1394.287476,1383.590942 1394.920288,1379.007812 
	C1395.883423,1372.032593 1398.993408,1369.576904 1406.094604,1369.673828 
	C1409.580078,1369.721313 1413.057373,1370.232788 1416.543945,1370.438965 
	C1417.675781,1370.505981 1418.825562,1370.269775 1419.967041,1370.172241 
	C1419.973145,1369.629028 1419.979370,1369.085938 1419.985474,1368.542725 
	C1414.612061,1368.060913 1409.244141,1367.275635 1403.863770,1367.179321 
	C1398.026367,1367.074707 1393.754395,1369.807373 1393.114136,1375.571899 
	C1392.210205,1383.709106 1392.178223,1392.097534 1393.092163,1400.230469 
	C1393.761230,1406.184570 1398.155640,1408.942749 1404.214722,1408.849365 
	C1408.842285,1408.778320 1413.467407,1408.085815 1418.073364,1407.508545 
	C1418.948120,1407.398804 1419.728027,1406.532959 1420.551758,1406.015869 
	C1416.928955,1405.431519 1413.666382,1405.827148 1410.399414,1406.181274 
	C1399.254150,1407.389526 1396.096680,1404.945190 1394.235107,1392.924561 
M1471.977661,1395.483154 
	C1471.977661,1390.834717 1472.428101,1386.130737 1471.862061,1381.552246 
	C1471.175537,1375.998169 1473.527588,1373.183960 1478.525635,1371.885376 
	C1481.083374,1371.220947 1483.621704,1370.360962 1486.225098,1370.026123 
	C1488.701782,1369.707520 1491.251709,1369.957642 1494.806030,1369.957642 
	C1489.848389,1365.889038 1486.328491,1366.341797 1472.552734,1371.808350 
	C1471.890137,1370.667603 1471.220581,1369.515015 1470.302979,1367.935303 
	C1470.302979,1381.868896 1470.302979,1395.174927 1470.302979,1408.480835 
	C1470.861206,1408.484375 1471.419434,1408.488037 1471.977661,1408.491577 
	C1471.977661,1404.485962 1471.977661,1400.480225 1471.977661,1395.483154 
z"/>
<path fill="#FEFCFD" opacity="1.000000" stroke="none" 
	d="
M962.636169,1337.115845 
	C953.613342,1328.991821 944.475891,1320.991089 935.585938,1312.724243 
	C868.845276,1250.661377 802.154724,1188.544678 735.438843,1126.455200 
	C733.506104,1124.656616 731.465637,1122.973633 728.937317,1120.767334 
	C741.713806,1107.608154 753.827698,1095.131226 766.247131,1082.339722 
	C767.865234,1083.788818 769.107788,1084.832031 770.273071,1085.955200 
	C828.100403,1141.688721 885.922241,1197.427856 943.740784,1253.170532 
	C949.028442,1258.268311 949.009216,1258.273682 953.999023,1252.931885 
	C1033.953857,1167.336548 1113.908325,1081.740723 1193.867676,996.149780 
	C1275.419312,908.854614 1356.978516,821.566711 1438.529419,734.270813 
	C1470.262451,700.302307 1501.979736,666.318909 1533.713135,632.350647 
	C1535.532227,630.403503 1537.432617,628.532471 1539.563354,626.476807 
	C1539.852051,657.159363 1539.872803,687.991333 1539.564941,719.429443 
	C1537.257935,722.061035 1535.239136,724.048828 1533.306763,726.117249 
	C1468.372925,795.620361 1403.448120,865.132080 1338.520264,934.640625 
	C1257.331055,1021.557678 1176.135864,1108.468872 1094.952148,1195.390869 
	C1050.837280,1242.623657 1006.740906,1289.873657 962.636169,1337.115845 
z"/>
<path fill="#FEFCFD" opacity="1.000000" stroke="none" 
	d="
M1539.883545,819.427490 
	C1524.521240,836.118042 1509.145874,852.293945 1493.899658,868.590759 
	C1451.331665,914.092651 1408.816284,959.643921 1366.281494,1005.176880 
	C1279.731323,1097.827759 1193.179443,1190.476929 1106.633545,1283.131714 
	C1058.527222,1334.633667 1010.432007,1386.145996 962.329590,1437.651733 
	C956.646484,1443.736938 954.837708,1443.812988 948.731384,1437.979004 
	C933.311584,1423.246338 917.957520,1408.444702 902.520569,1393.730225 
	C891.305298,1383.039673 879.882568,1372.564819 868.754578,1361.785034 
	C818.867798,1313.459229 769.065369,1265.046509 719.204895,1216.693481 
	C706.407043,1204.282593 693.528870,1191.954346 680.625671,1179.652832 
	C679.311218,1178.399780 677.569458,1177.594849 675.787354,1176.425537 
	C677.702026,1174.114990 678.559082,1172.932251 679.563354,1171.891479 
	C691.248596,1159.781982 703.068787,1147.799683 714.582336,1135.529541 
	C717.671692,1132.237061 719.519409,1132.538696 722.627319,1135.445679 
	C761.684509,1171.978271 800.855469,1208.389160 840.001770,1244.826538 
	C879.879150,1281.944458 919.783142,1319.033936 959.591431,1356.225830 
	C962.195190,1358.658447 964.096375,1358.507690 966.283325,1356.156006 
	C968.549500,1353.718994 970.772705,1351.242065 973.363159,1348.281738 
	C979.642151,1341.464722 985.584473,1335.159546 991.501343,1328.830933 
	C1071.271118,1243.507812 1151.057617,1158.200562 1230.799072,1072.851074 
	C1327.375122,969.482544 1423.902954,866.069092 1520.486938,762.708069 
	C1526.814819,755.936157 1533.443237,749.444885 1539.931885,742.823120 
	C1539.931030,768.204773 1539.930298,793.586365 1539.883545,819.427490 
z"/>
<path fill="#14186D" opacity="1.000000" stroke="none" 
	d="
M1540.007324,742.379089 
	C1533.443237,749.444885 1526.814819,755.936157 1520.486938,762.708069 
	C1423.902954,866.069092 1327.375122,969.482544 1230.799072,1072.851074 
	C1151.057617,1158.200562 1071.271118,1243.507812 991.501343,1328.830933 
	C985.584473,1335.159546 979.642151,1341.464722 973.435486,1347.947632 
	C969.775024,1344.640381 966.390747,1341.166382 962.821289,1337.404053 
	C1006.740906,1289.873657 1050.837280,1242.623657 1094.952148,1195.390869 
	C1176.135864,1108.468872 1257.331055,1021.557678 1338.520264,934.640625 
	C1403.448120,865.132080 1468.372925,795.620361 1533.306763,726.117249 
	C1535.239136,724.048828 1537.257935,722.061035 1539.535156,719.880188 
	C1539.916748,727.128174 1539.999634,734.531677 1540.007324,742.379089 
z"/>
<path fill="#FFFCFD" opacity="1.000000" stroke="none" 
	d="
M956.533997,969.270874 
	C930.317871,969.591309 909.456848,959.470642 895.568481,937.829834 
	C881.122375,915.319824 880.188965,891.284363 893.214294,867.632507 
	C912.572571,832.481262 956.110229,821.502136 990.268738,842.688110 
	C1029.379028,866.945251 1033.035156,923.822632 997.566711,953.157776 
	C985.668823,962.998169 972.145142,968.019226 956.533997,969.270874 
z"/>
<path fill="#F8BACF" opacity="1.000000" stroke="none" 
	d="
M1216.928711,1389.907959 
	C1214.858154,1394.497559 1213.357178,1398.997070 1210.793701,1402.775879 
	C1207.980469,1406.922607 1203.523071,1408.990601 1198.299927,1408.953613 
	C1192.803833,1408.914795 1187.306152,1408.887085 1181.811279,1408.982910 
	C1179.359375,1409.025635 1178.146851,1408.270264 1178.158936,1405.587769 
	C1178.239380,1387.766846 1178.224243,1369.945435 1178.264038,1352.124268 
	C1178.265137,1351.659058 1178.538574,1351.194214 1178.768555,1350.463257 
	C1186.823608,1350.463257 1194.999268,1349.667725 1202.942627,1350.685303 
	C1211.007568,1351.718506 1215.217407,1358.347534 1216.294800,1365.734131 
	C1217.431274,1373.526123 1216.856812,1381.567749 1216.928711,1389.907959 
M1215.029541,1384.967285 
	C1214.360229,1377.896851 1214.451904,1370.644653 1212.817993,1363.804565 
	C1211.007324,1356.223877 1205.484741,1352.773193 1197.640747,1352.481079 
	C1193.651123,1352.332520 1189.639160,1352.640259 1185.660645,1352.381470 
	C1181.988647,1352.142578 1180.680664,1353.388428 1180.748535,1357.174194 
	C1180.954590,1368.656250 1180.743286,1380.145020 1180.859131,1391.629517 
	C1180.907227,1396.385132 1179.676514,1402.660278 1182.162842,1405.428223 
	C1184.318115,1407.827637 1190.906616,1406.166870 1195.526733,1406.447876 
	C1203.623779,1406.940063 1208.841553,1402.916138 1211.875977,1395.845093 
	C1213.239502,1392.667603 1213.894043,1389.185913 1215.029541,1384.967285 
z"/>
<path fill="#F8B9CE" opacity="1.000000" stroke="none" 
	d="
M1290.917114,1379.123413 
	C1296.468750,1379.114624 1302.071167,1378.916504 1304.304443,1384.508179 
	C1306.901001,1391.010132 1306.912109,1397.897095 1303.268921,1404.235107 
	C1302.507935,1405.559082 1300.885498,1406.568481 1299.442993,1407.287598 
	C1294.437378,1409.782471 1278.004883,1409.368164 1272.831299,1406.002686 
	C1274.345703,1406.002686 1275.860229,1406.007812 1277.374756,1406.001587 
	C1282.864014,1405.979126 1288.390625,1406.345093 1293.832886,1405.826538 
	C1300.310303,1405.209351 1302.402344,1402.597046 1302.959717,1396.078613 
	C1303.044678,1395.084717 1303.041626,1394.081421 1303.041870,1393.082397 
	C1303.044312,1384.118042 1300.795410,1381.841064 1291.845215,1381.729126 
	C1288.347290,1381.685425 1284.832153,1381.846191 1281.355103,1381.553711 
	C1274.235840,1380.954956 1271.237915,1377.815552 1270.711304,1370.778687 
	C1270.612183,1369.452026 1270.627686,1368.114258 1270.644165,1366.782227 
	C1270.791382,1354.889038 1274.796265,1350.858765 1286.725952,1351.045654 
	C1291.914673,1351.126953 1297.095093,1351.743164 1302.279297,1352.116455 
	C1302.276855,1352.714111 1302.274536,1353.311768 1302.272095,1353.909424 
	C1300.607422,1353.909424 1298.941895,1353.946045 1297.278442,1353.902344 
	C1292.783691,1353.784668 1288.279907,1353.378418 1283.798218,1353.555298 
	C1277.325928,1353.810791 1274.240356,1356.891357 1273.678955,1362.995361 
	C1272.365479,1377.277100 1274.268799,1379.107910 1290.917114,1379.123413 
z"/>
<path fill="#F8BCD1" opacity="1.000000" stroke="none" 
	d="
M1432.498657,1402.251953 
	C1435.623047,1403.870117 1438.477417,1406.027710 1441.457397,1406.218140 
	C1446.696289,1406.553101 1452.012085,1405.684692 1457.658936,1406.063477 
	C1456.861206,1406.582520 1456.098267,1407.481934 1455.259888,1407.558960 
	C1449.644653,1408.074463 1444.003784,1408.822388 1438.390137,1408.690063 
	C1433.393311,1408.572266 1429.422852,1405.372192 1428.989136,1400.501831 
	C1428.259277,1392.302734 1428.114014,1383.945801 1428.857422,1375.758179 
	C1429.363525,1370.182373 1433.273193,1367.686401 1438.997314,1367.197876 
	C1441.149536,1367.014282 1443.327026,1367.064819 1445.491699,1367.095825 
	C1454.941040,1367.231201 1458.864990,1371.155884 1458.957520,1380.515015 
	C1459.019287,1386.755737 1456.715210,1389.374634 1450.389160,1389.631470 
	C1444.732666,1389.861206 1439.060669,1389.699097 1433.395874,1389.750122 
	C1432.430176,1389.758789 1431.466187,1389.970093 1429.599854,1390.197754 
	C1430.542236,1394.306641 1431.413696,1398.106079 1432.498657,1402.251953 
M1432.106567,1373.868652 
	C1431.265869,1378.114136 1430.425171,1382.359619 1429.479004,1387.137451 
	C1436.879639,1387.137451 1443.007812,1387.258667 1449.127563,1387.085205 
	C1452.079590,1387.001465 1455.625732,1386.905518 1456.196289,1383.033569 
	C1456.832886,1378.712524 1456.719360,1374.193848 1452.605103,1371.326904 
	C1448.024536,1368.134766 1436.818848,1369.313477 1432.106567,1373.868652 
z"/>
<path fill="#F8BCD1" opacity="1.000000" stroke="none" 
	d="
M1324.908203,1403.428223 
	C1328.374756,1405.450684 1328.898682,1402.969360 1329.592163,1400.917480 
	C1333.001465,1390.829346 1336.354370,1380.722290 1339.786987,1370.642212 
	C1340.330200,1369.047241 1341.179810,1367.556396 1341.887695,1366.017456 
	C1342.558960,1366.270508 1343.230225,1366.523560 1343.901489,1366.776611 
	C1337.137817,1387.107544 1330.374023,1407.438477 1323.610352,1427.769409 
	C1322.842285,1427.542725 1322.074219,1427.316162 1321.306152,1427.089600 
	C1322.262329,1423.987061 1323.216919,1420.884155 1324.175293,1417.782227 
	C1324.912109,1415.397705 1325.947998,1413.053589 1326.270020,1410.614868 
	C1326.433228,1409.379761 1325.546387,1407.800537 1324.719849,1406.683594 
	C1323.081055,1404.468994 1320.416748,1402.753540 1319.475220,1400.327637 
	C1315.383301,1389.784424 1311.749878,1379.062988 1307.989624,1368.392212 
	C1307.793335,1367.835205 1307.964355,1367.148560 1308.907837,1366.012207 
	C1309.738159,1367.326660 1310.834351,1368.544067 1311.355347,1369.971436 
	C1314.549438,1378.723389 1317.522827,1387.556641 1320.779175,1396.284668 
	C1321.687500,1398.719604 1323.303589,1400.890625 1324.908203,1403.428223 
z"/>
<path fill="#F8BCD1" opacity="1.000000" stroke="none" 
	d="
M1246.460693,1408.796387 
	C1229.412231,1409.284790 1225.286621,1405.289673 1225.239868,1388.705078 
	C1225.236084,1387.375610 1225.226440,1386.044922 1225.277832,1384.717041 
	C1225.819336,1370.749268 1233.103516,1364.899902 1246.906616,1367.335815 
	C1253.145996,1368.436768 1257.509033,1372.263184 1258.406494,1378.815430 
	C1259.163940,1384.345703 1259.349487,1390.087158 1258.789062,1395.634033 
	C1257.938599,1404.049683 1255.092529,1406.714478 1246.460693,1408.796387 
M1254.986938,1400.061401 
	C1257.476807,1392.374878 1257.502930,1384.603882 1255.030396,1376.988525 
	C1253.117798,1371.098145 1248.269043,1369.010620 1239.761719,1369.640869 
	C1233.336182,1370.116821 1229.856201,1372.609985 1228.920654,1378.648438 
	C1228.138184,1383.699097 1227.994385,1388.922485 1228.235229,1394.037964 
	C1228.486328,1399.371094 1229.920776,1404.707153 1236.256958,1405.765259 
	C1242.987183,1406.889038 1250.044434,1408.009277 1254.986938,1400.061401 
z"/>
<path fill="#F9BFD3" opacity="1.000000" stroke="none" 
	d="
M1370.017334,1365.218018 
	C1378.628540,1365.817383 1383.525635,1370.147217 1383.777100,1377.807983 
	C1384.088623,1387.293213 1383.885620,1396.795532 1383.861206,1406.290405 
	C1383.859253,1407.036377 1383.515869,1407.781494 1382.152466,1408.683472 
	C1381.907715,1407.301880 1381.464111,1405.922241 1381.451172,1404.538452 
	C1381.380859,1397.042847 1381.437012,1389.546143 1381.411621,1382.049927 
	C1381.371460,1370.220825 1376.201660,1366.074219 1364.600342,1368.528809 
	C1356.082031,1370.331055 1354.901123,1371.773315 1354.900879,1380.375000 
	C1354.900635,1388.204468 1354.919434,1396.034058 1354.884766,1403.863281 
	C1354.877930,1405.419189 1354.667480,1406.974121 1354.550903,1408.529541 
	C1354.089478,1408.510376 1353.628174,1408.491089 1353.166748,1408.471924 
	C1353.166748,1394.568359 1353.166748,1380.664673 1353.166748,1366.076660 
	C1354.135864,1367.607178 1354.791016,1368.641968 1355.177612,1369.252686 
	C1360.092041,1367.884277 1364.843750,1366.561157 1370.017334,1365.218018 
z"/>
<path fill="#F8BCD1" opacity="1.000000" stroke="none" 
	d="
M1394.293457,1393.355957 
	C1396.096680,1404.945190 1399.254150,1407.389526 1410.399414,1406.181274 
	C1413.666382,1405.827148 1416.928955,1405.431519 1420.551758,1406.015869 
	C1419.728027,1406.532959 1418.948120,1407.398804 1418.073364,1407.508545 
	C1413.467407,1408.085815 1408.842285,1408.778320 1404.214722,1408.849365 
	C1398.155640,1408.942749 1393.761230,1406.184570 1393.092163,1400.230469 
	C1392.178223,1392.097534 1392.210205,1383.709106 1393.114136,1375.571899 
	C1393.754395,1369.807373 1398.026367,1367.074707 1403.863770,1367.179321 
	C1409.244141,1367.275635 1414.612061,1368.060913 1419.985474,1368.542725 
	C1419.979370,1369.085938 1419.973145,1369.629028 1419.967041,1370.172241 
	C1418.825562,1370.269775 1417.675781,1370.505981 1416.543945,1370.438965 
	C1413.057373,1370.232788 1409.580078,1369.721313 1406.094604,1369.673828 
	C1398.993408,1369.576904 1395.883423,1372.032593 1394.920288,1379.007812 
	C1394.287476,1383.590942 1394.436279,1388.281860 1394.293457,1393.355957 
z"/>
<path fill="#F9C6D7" opacity="1.000000" stroke="none" 
	d="
M1471.977661,1395.978882 
	C1471.977661,1400.480225 1471.977661,1404.485962 1471.977661,1408.491577 
	C1471.419434,1408.488037 1470.861206,1408.484375 1470.302979,1408.480835 
	C1470.302979,1395.174927 1470.302979,1381.868896 1470.302979,1367.935303 
	C1471.220581,1369.515015 1471.890137,1370.667603 1472.552734,1371.808350 
	C1486.328491,1366.341797 1489.848389,1365.889038 1494.806030,1369.957642 
	C1491.251709,1369.957642 1488.701782,1369.707520 1486.225098,1370.026123 
	C1483.621704,1370.360962 1481.083374,1371.220947 1478.525635,1371.885376 
	C1473.527588,1373.183960 1471.175537,1375.998169 1471.862061,1381.552246 
	C1472.428101,1386.130737 1471.977661,1390.834717 1471.977661,1395.978882 
z"/>
<path fill="#E92165" opacity="1.000000" stroke="none" 
	d="
M1214.949951,1385.404785 
	C1213.894043,1389.185913 1213.239502,1392.667603 1211.875977,1395.845093 
	C1208.841553,1402.916138 1203.623779,1406.940063 1195.526733,1406.447876 
	C1190.906616,1406.166870 1184.318115,1407.827637 1182.162842,1405.428223 
	C1179.676514,1402.660278 1180.907227,1396.385132 1180.859131,1391.629517 
	C1180.743286,1380.145020 1180.954590,1368.656250 1180.748535,1357.174194 
	C1180.680664,1353.388428 1181.988647,1352.142578 1185.660645,1352.381470 
	C1189.639160,1352.640259 1193.651123,1352.332520 1197.640747,1352.481079 
	C1205.484741,1352.773193 1211.007324,1356.223877 1212.817993,1363.804565 
	C1214.451904,1370.644653 1214.360229,1377.896851 1214.949951,1385.404785 
z"/>
<path fill="#EA2367" opacity="1.000000" stroke="none" 
	d="
M1432.306152,1373.518677 
	C1436.818848,1369.313477 1448.024536,1368.134766 1452.605103,1371.326904 
	C1456.719360,1374.193848 1456.832886,1378.712524 1456.196289,1383.033569 
	C1455.625732,1386.905518 1452.079590,1387.001465 1449.127563,1387.085205 
	C1443.007812,1387.258667 1436.879639,1387.137451 1429.479004,1387.137451 
	C1430.425171,1382.359619 1431.265869,1378.114136 1432.306152,1373.518677 
z"/>
<path fill="#E92366" opacity="1.000000" stroke="none" 
	d="
M1254.822754,1400.422607 
	C1250.044434,1408.009277 1242.987183,1406.889038 1236.256958,1405.765259 
	C1229.920776,1404.707153 1228.486328,1399.371094 1228.235229,1394.037964 
	C1227.994385,1388.922485 1228.138184,1383.699097 1228.920654,1378.648438 
	C1229.856201,1372.609985 1233.336182,1370.116821 1239.761719,1369.640869 
	C1248.269043,1369.010620 1253.117798,1371.098145 1255.030396,1376.988525 
	C1257.502930,1384.603882 1257.476807,1392.374878 1254.822754,1400.422607 
z"/>
</svg>